<svg xmlns="http://www.w3.org/2000/svg" xmlns:xlink="http://www.w3.org/1999/xlink" viewBox="0 0 720 300" role="img" aria-label="Firefly for Java by Example — opener for chapter 19" font-family="Avenir Next,Avenir,Helvetica Neue,Helvetica,Arial,sans-serif"><defs><linearGradient id="fld" x1="0" y1="0" x2="720" y2="300" gradientUnits="userSpaceOnUse"><stop offset="0" stop-color="#0E2233"/><stop offset="1" stop-color="#123047"/></linearGradient><linearGradient id="pnl" x1="490" y1="14" x2="706" y2="286" gradientUnits="userSpaceOnUse"><stop offset="0" stop-color="#0F2436"/><stop offset="1" stop-color="#0A1B29"/></linearGradient><linearGradient id="grh" x1="0" y1="0" x2="0" y2="300" gradientUnits="userSpaceOnUse"><stop offset="0" stop-color="#F2C961"/><stop offset="1" stop-color="#B5791A"/></linearGradient></defs><rect width="720" height="300" fill="url(#fld)"/><rect x="0" y="0" width="8" height="300" fill="url(#grh)"/><rect x="490" y="14" width="216" height="272" rx="16" fill="url(#pnl)"/><rect x="490" y="14" width="216" height="272" rx="16" fill="none" stroke="#5382A1" stroke-width="1" opacity="0.22"/><g fill="#F2C961"><circle cx="528" cy="56" r="1.4" opacity="0.6"/><circle cx="678" cy="236" r="1.4" opacity="0.55"/><circle cx="644" cy="66" r="1.1" opacity="0.5"/><circle cx="512" cy="210" r="1.1" opacity="0.45"/></g><circle cx="552" cy="246" r="1.3" fill="#7FB0CE" opacity="0.6"/><text x="40" y="40" fill="#F2C961" font-size="15" font-weight="800" letter-spacing="2.5">CHAPTER 19</text><rect x="40" y="49" width="46" height="4" rx="2" fill="#E8B33A"/><polygon points="395.5,116.6 387.4,121.3 379.3,116.6 379.3,107.2 387.4,102.6 395.5,107.2" fill="#123047" stroke="#3E6178" stroke-width="1.2" opacity="0.6"/><polygon points="426.4,71.7 419.8,75.5 413.2,71.7 413.2,64.1 419.8,60.3 426.4,64.1" fill="#123047" stroke="#3E6178" stroke-width="1.2" opacity="0.6"/><polygon points="130.7,240.1 121.1,245.6 111.6,240.1 111.6,229.1 121.1,223.6 130.7,229.1" fill="#123047" stroke="#3E6178" stroke-width="1.2" opacity="0.6"/><g fill="none" stroke="#E76F00" stroke-width="2" opacity="0.50"><path d="M192.1,146.4 Q267.5,170.9 341.2,141.6"/><path d="M192.1,146.4 Q186.8,196.3 214.6,238.0"/><path d="M192.1,146.4 Q135.3,130.6 81.6,154.6"/><path d="M192.1,146.4 Q190.4,102.7 161.3,70.0"/></g><g fill="none" stroke="#3E6178" stroke-width="1.3" opacity="0.4"><path d="M341.2,141.6 Q260.5,167.0 214.6,238.0"/><path d="M214.6,238.0 Q163.1,172.4 81.6,154.6"/><path d="M81.6,154.6 Q136.7,126.7 161.3,70.0"/><path d="M161.3,70.0 Q238.3,138.2 341.2,141.6"/></g><circle cx="242.8" cy="144.8" r="4.5" fill="#E8B33A" opacity="0.9"/><circle cx="290.5" cy="143.3" r="3.0" fill="#E8B33A" opacity="0.55"/><circle cx="199.7" cy="177.6" r="4.5" fill="#7FB0CE" opacity="0.9"/><circle cx="206.9" cy="206.9" r="3.0" fill="#7FB0CE" opacity="0.55"/><circle cx="154.5" cy="149.2" r="4.5" fill="#E8B33A" opacity="0.9"/><circle cx="119.1" cy="151.8" r="3.0" fill="#E8B33A" opacity="0.55"/><circle cx="181.6" cy="120.4" r="4.5" fill="#7FB0CE" opacity="0.9"/><circle cx="171.7" cy="96.0" r="3.0" fill="#7FB0CE" opacity="0.55"/><polygon points="367.1,156.6 341.2,171.6 315.3,156.6 315.3,126.7 341.2,111.7 367.1,126.7" fill="none" stroke="#5382A1" stroke-width="1.1" opacity="0.25"/><polygon points="361.9,153.6 341.2,165.6 320.5,153.6 320.5,129.7 341.2,117.7 361.9,129.7" fill="#123047" stroke="#5382A1" stroke-width="2.0"/><polygon points="235.6,250.2 214.6,262.4 193.5,250.2 193.5,225.8 214.6,213.6 235.6,225.8" fill="none" stroke="#5382A1" stroke-width="1.1" opacity="0.25"/><polygon points="230.5,247.2 214.6,256.4 198.7,247.2 198.7,228.8 214.6,219.6 230.5,228.8" fill="#123047" stroke="#5382A1" stroke-width="2.0"/><polygon points="102.2,166.5 81.6,178.4 61.0,166.5 61.0,142.7 81.6,130.8 102.2,142.7" fill="none" stroke="#5382A1" stroke-width="1.1" opacity="0.25"/><polygon points="97.0,163.5 81.6,172.4 66.2,163.5 66.2,145.7 81.6,136.8 97.0,145.7" fill="#123047" stroke="#5382A1" stroke-width="2.0"/><polygon points="183.1,82.6 161.3,95.3 139.4,82.6 139.4,57.4 161.3,44.7 183.1,57.4" fill="none" stroke="#5382A1" stroke-width="1.1" opacity="0.25"/><polygon points="177.9,79.6 161.3,89.3 144.6,79.6 144.6,60.4 161.3,50.7 177.9,60.4" fill="#123047" stroke="#5382A1" stroke-width="2.0"/><polygon points="218.0,161.4 192.1,176.4 166.1,161.4 166.1,131.4 192.1,116.4 218.0,131.4" fill="none" stroke="#5382A1" stroke-width="1.6" opacity="0.4"/><polygon points="211.1,157.4 192.1,168.4 173.0,157.4 173.0,135.4 192.1,124.4 211.1,135.4" fill="#123047" stroke="#E8B33A" stroke-width="2.6"/><text x="192.1" y="147.4" text-anchor="middle" dominant-baseline="middle" fill="#F5EFE2" font-size="20" font-weight="800" letter-spacing="-1">F</text><g transform="translate(601,150)"><circle r="66" fill="#E8B33A" opacity="0.07"/><circle r="40" fill="#F2C961" opacity="0.10"/><path d="M-80,84 C-46,44 -24,18 -8,-2" fill="none" stroke="#E8B33A" stroke-width="2.4" opacity="0.10" stroke-linecap="round"/><path d="M-80,84 C-46,44 -24,18 -8,-2" fill="none" stroke="#F2C961" stroke-width="1" opacity="0.22" stroke-linecap="round"/><g transform="rotate(-16)"><circle cx="0" cy="30" r="24" fill="#E8B33A" opacity="0.18"/><circle cx="0" cy="30" r="14" fill="#F2C961" opacity="0.45"/><path d="M-3,-6 C-40,-30 -52,-2 -16,8 Z" fill="#F5EFE2" opacity="0.20"/><path d="M3,-6 C40,-30 52,-2 16,8 Z" fill="#F5EFE2" opacity="0.20"/><ellipse cx="0" cy="26" rx="11" ry="16" fill="#E8B33A"/><ellipse cx="0" cy="28" rx="6" ry="10" fill="#fff1d2"/><ellipse cx="0" cy="2" rx="9" ry="13" fill="#0A1B29" stroke="#5382A1" stroke-width="1.6"/><ellipse cx="0" cy="-13" rx="5.5" ry="6.5" fill="#0A1B29" stroke="#5382A1" stroke-width="1.3"/><path d="M-3,-18 C-9,-28 -13,-30 -17,-33" fill="none" stroke="#5382A1" stroke-width="1.5" stroke-linecap="round"/><path d="M3,-18 C9,-28 13,-30 17,-33" fill="none" stroke="#5382A1" stroke-width="1.5" stroke-linecap="round"/></g><circle cx="50" cy="-46" r="2" fill="#F2C961" opacity="0.7"/><circle cx="62" cy="28" r="1.6" fill="#7FB0CE" opacity="0.75"/><circle cx="-54" cy="-40" r="1.6" fill="#F2C961" opacity="0.6"/></g></svg>
